<svg width="100" height="100" viewBox="0 0 100 100" fill="none" xmlns="http://www.w3.org/2000/svg">
    <!-- Zoho Style Geometric Z -->
    <path d="M25 25C25 22.2386 27.2386 20 30 20H70C72.7614 20 75 22.2386 75 25V30C75 32.7614 72.7614 35 70 35H45L75 65V75C75 77.7614 72.7614 80 70 80H30C27.2386 80 25 77.7614 25 75V70C25 67.2386 27.2386 65 30 65H55L25 35V25Z" fill="url(#brandGradient)"/>
    
    <!-- Overlay accents for dynamism -->
    <circle cx="30" cy="25" r="5" fill="#EA4335" /> <!-- Red -->
    <circle cx="70" cy="20" r="5" fill="#FBBC05" /> <!-- Yellow -->
    <circle cx="75" cy="75" r="5" fill="#34A853" /> <!-- Green -->
    <circle cx="25" cy="80" r="5" fill="#4285F4" /> <!-- Blue -->

    <defs>
        <linearGradient id="brandGradient" x1="25" y1="20" x2="75" y2="80" gradientUnits="userSpaceOnUse">
            <stop stop-color="#4285F4"/>
            <stop offset="1" stop-color="#2c3e50"/>
        </linearGradient>
    </defs>
</svg>
